<svg xmlns:dc="http://purl.org/dc/elements/1.1/" xmlns:cc="http://creativecommons.org/ns#" xmlns:rdf="http://www.w3.org/1999/02/22-rdf-syntax-ns#" xmlns:svg="http://www.w3.org/2000/svg" xmlns="http://www.w3.org/2000/svg" xmlns:xlink="http://www.w3.org/1999/xlink" id="svg370181" viewBox="0 0 1024 768" height="768px" width="1024px" version="1.1">
  <metadata id="metadata370187">
    <rdf:rdf>
      <cc:work rdf:about="">
        <dc:format>image/svg+xml</dc:format>
        <dc:type rdf:resource="http://purl.org/dc/dcmitype/StillImage"></dc:type>
      </cc:work>
    </rdf:rdf>
  </metadata>
  <defs id="defs370185"></defs>
  <linearGradient spreadMethod="pad" y2="30%" x2="-10%" y1="120%" x1="30%" id="3d_gradient2-logo-dbd4484d-dac6-49c3-8f17-8c40f4b2d887">
    <stop id="stop370162" stop-opacity="1" stop-color="#ffffff" offset="0%"></stop>
    <stop id="stop370164" stop-opacity="1" stop-color="#000000" offset="100%"></stop>
  </linearGradient>
  <linearGradient gradientTransform="rotate(-30)" spreadMethod="pad" y2="30%" x2="-10%" y1="120%" x1="30%" id="3d_gradient3-logo-dbd4484d-dac6-49c3-8f17-8c40f4b2d887">
    <stop id="stop370167" stop-opacity="1" stop-color="#ffffff" offset="0%"></stop>
    <stop id="stop370169" stop-opacity="1" stop-color="#cccccc" offset="50%"></stop>
    <stop id="stop370171" stop-opacity="1" stop-color="#000000" offset="100%"></stop>
  </linearGradient>
  <g id="logo-group">
    <image xlink:href="" id="container" x="272" y="144" width="480" height="480" style="display: none;" transform="translate(0 0)"></image>
    <g id="logo-center" transform="translate(5.684341886080802e-14 0)">
      <image xlink:href="" id="icon_container" style="display: none;" x="0" y="0"></image>
      <g id="slogan" style="font-style:normal;font-weight:300;font-size:32px;line-height:1;font-family:Montserrat;font-variant-ligatures:none;text-align:center;text-anchor:middle" transform="translate(0 0)"></g>
      <g id="title" style="font-style:normal;font-weight:800;font-size:72px;line-height:1;font-family:'Montserrat ExtraBold Alt1';font-variant-ligatures:none;text-align:center;text-anchor:middle" transform="translate(0 0)">
        <path id="path370190" style="font-style:normal;font-weight:800;font-size:72px;line-height:1;font-family:'Montserrat ExtraBold Alt1';font-variant-ligatures:none;text-align:center;text-anchor:middle" d="m 341.7245,-2.304 c 4.176,2.232 8.928,3.312 14.256,3.312 4.608,0 8.712,-0.792 12.456,-2.448 3.672,-1.584 6.768,-3.96 9.216,-7.056 l -9.072,-8.208 c -3.312,3.96 -7.272,5.904 -11.88,5.904 -2.736,0 -5.184,-0.576 -7.344,-1.8 -2.16,-1.152 -3.816,-2.88 -4.968,-5.04 -1.152,-2.16 -1.728,-4.68 -1.728,-7.56 0,-2.808 0.576,-5.328 1.728,-7.488 1.152,-2.16 2.808,-3.888 4.968,-5.112 2.16,-1.152 4.608,-1.8 7.344,-1.8 4.608,0 8.568,2.016 11.88,5.904 l 9.072,-8.208 c -2.448,-3.024 -5.544,-5.4 -9.216,-7.056 -3.744,-1.584 -7.848,-2.448 -12.456,-2.448 -5.328,0 -10.08,1.152 -14.256,3.384 -4.176,2.232 -7.488,5.328 -9.864,9.288 -2.448,4.032 -3.6,8.496 -3.6,13.536 0,5.04 1.152,9.576 3.6,13.536 2.376,4.032 5.688,7.128 9.864,9.36 z" stroke-width="0" stroke-linejoin="miter" stroke-miterlimit="2" fill="#ce3126" stroke="#ce3126" transform="translate(0 314.092) translate(281.03046875000007 37.147999999999996) scale(1.25) translate(-328.2605 51.408)"></path>
        <path id="path370192" style="font-style:normal;font-weight:800;font-size:72px;line-height:1;font-family:'Montserrat ExtraBold Alt1';font-variant-ligatures:none;text-align:center;text-anchor:middle" d="m 390.37513,-1.944 c 3.31199,1.728 7.12799,2.592 11.30399,2.592 4.176,0 7.99201,-0.864 11.376,-2.592 3.312,-1.728 5.976,-4.104 7.848,-7.2 1.872,-3.024 2.808,-6.552 2.808,-10.44 0,-3.888 -0.936,-7.344 -2.808,-10.368 -1.872,-3.024 -4.536,-5.4 -7.848,-7.128 -3.38399,-1.728 -7.2,-2.592 -11.376,-2.592 -4.248,0 -8.064,0.864 -11.37599,2.592 -3.31201,1.728 -5.976,4.104 -7.84801,7.128 -1.872,3.096 -2.80799,6.552 -2.80799,10.368 0,3.888 0.93599,7.416 2.80799,10.44 1.87201,3.096 4.536,5.472 7.92001,7.2 z m 17.20799,-10.728 c -1.584,1.656 -3.528,2.448 -5.904,2.448 -2.44799,0 -4.392,-0.792 -5.904,-2.448 -1.584,-1.656 -2.30399,-3.96 -2.30399,-6.912 0,-2.88 0.71999,-5.112 2.30399,-6.768 1.512,-1.584 3.45601,-2.448 5.904,-2.448 2.376,0 4.32,0.864 5.904,2.448 1.512,1.656 2.304,3.888 2.304,6.768 0,2.952 -0.792,5.256 -2.304,6.912 z" stroke-width="0" stroke-linejoin="miter" stroke-miterlimit="2" fill="#b83539" stroke="#b83539" transform="translate(0 314.092) translate(345.26375625000014 51.818000000000005) scale(1.25) translate(-379.64713 39.672)"></path>
        <path id="path370194" style="font-style:normal;font-weight:800;font-size:72px;line-height:1;font-family:'Montserrat ExtraBold Alt1';font-variant-ligatures:none;text-align:center;text-anchor:middle" d="m 467.12825,-35.352 c -2.952,-2.88 -6.84,-4.32 -11.664,-4.32 -2.52,0 -4.824,0.432 -6.912,1.296 -2.16,0.864 -3.96,2.016 -5.472,3.6 v -4.248 h -13.032 V 0 h 13.68 v -18.864 c 0,-3.024 0.648,-5.328 2.088,-6.912 1.44,-1.512 3.312,-2.304 5.688,-2.304 4.248,0 6.408,2.664 6.408,7.992 V 0 h 13.68 v -22.32 c 0,-5.76 -1.512,-10.152 -4.464,-13.032 z" stroke-width="0" stroke-linejoin="miter" stroke-miterlimit="2" fill="#a1394c" stroke="#a1394c" transform="translate(0 314.092) translate(408.26515625000013 51.818000000000005) scale(1.25) translate(-430.04825 39.672)"></path>
        <path id="path370196" style="font-style:normal;font-weight:800;font-size:72px;line-height:1;font-family:'Montserrat ExtraBold Alt1';font-variant-ligatures:none;text-align:center;text-anchor:middle" d="m 517.19075,-35.352 c -2.952,-2.88 -6.84,-4.32 -11.664,-4.32 -2.52,0 -4.824,0.432 -6.912,1.296 -2.16,0.864 -3.96,2.016 -5.472,3.6 v -4.248 h -13.032 V 0 h 13.68 v -18.864 c 0,-3.024 0.648,-5.328 2.088,-6.912 1.44,-1.512 3.312,-2.304 5.688,-2.304 4.248,0 6.408,2.664 6.408,7.992 V 0 h 13.68 v -22.32 c 0,-5.76 -1.512,-10.152 -4.464,-13.032 z" stroke-width="0" stroke-linejoin="miter" stroke-miterlimit="2" fill="#8b3d5f" stroke="#8b3d5f" transform="translate(0 314.092) translate(470.84328125000013 51.818000000000005) scale(1.25) translate(-480.11075 39.672)"></path>
        <path id="path370198" style="font-style:normal;font-weight:800;font-size:72px;line-height:1;font-family:'Montserrat ExtraBold Alt1';font-variant-ligatures:none;text-align:center;text-anchor:middle" d="m 570.40775,-16.056 c 0.144,-2.16 0.216,-3.24 0.216,-3.384 0,-4.176 -0.936,-7.776 -2.808,-10.8 -1.872,-3.024 -4.32,-5.4 -7.488,-6.984 -3.168,-1.584 -6.696,-2.448 -10.584,-2.448 -4.104,0 -7.776,0.864 -11.016,2.592 -3.312,1.728 -5.832,4.176 -7.704,7.2 -1.872,3.024 -2.736,6.48 -2.736,10.296 0,3.888 0.936,7.416 2.808,10.44 1.872,3.096 4.608,5.472 8.064,7.2 3.456,1.728 7.416,2.592 12.024,2.592 7.272,0 12.816,-2.088 16.632,-6.336 l -7.2,-7.488 c -1.44,1.224 -2.808,2.088 -4.176,2.592 -1.368,0.576 -2.952,0.792 -4.824,0.792 -2.52,0 -4.608,-0.504 -6.264,-1.584 -1.656,-1.08 -2.736,-2.664 -3.312,-4.68 z m -25.92,-12.096 c 1.44,-1.152 3.168,-1.8 5.328,-1.8 2.088,0 3.816,0.648 5.256,1.8 1.44,1.224 2.304,2.88 2.736,4.896 h -15.984 c 0.36,-2.016 1.224,-3.672 2.664,-4.896 z" stroke-width="0" stroke-linejoin="miter" stroke-miterlimit="2" fill="#754071" stroke="#754071" transform="translate(0 314.092) translate(531.06453125 51.818000000000005) scale(1.25) translate(-528.28775 39.672)"></path>
        <path id="path370200" style="font-style:normal;font-weight:800;font-size:72px;line-height:1;font-family:'Montserrat ExtraBold Alt1';font-variant-ligatures:none;text-align:center;text-anchor:middle" d="m 585.35338,-1.944 c 3.384,1.728 7.27199,2.592 11.592,2.592 4.39199,0 8.20799,-0.936 11.44799,-2.808 3.168,-1.872 5.472,-4.536 6.84001,-7.92 l -10.58401,-5.4 c -1.8,3.528 -4.39199,5.256 -7.776,5.256 -2.44799,0 -4.536,-0.792 -6.12,-2.448 -1.584,-1.656 -2.37599,-3.96 -2.37599,-6.912 0,-2.88 0.79199,-5.112 2.37599,-6.768 1.584,-1.584 3.67201,-2.448 6.12,-2.448 3.38401,0 5.976,1.8 7.776,5.256 l 10.58401,-5.4 c -1.36801,-3.312 -3.67201,-5.976 -6.84001,-7.848 -3.24,-1.872 -7.056,-2.88 -11.44799,-2.88 -4.32001,0 -8.208,0.864 -11.592,2.592 -3.45601,1.728 -6.12,4.104 -7.99201,7.128 -1.872,3.024 -2.808,6.48 -2.808,10.368 0,3.888 0.936,7.416 2.808,10.44 1.87201,3.096 4.536,5.472 7.99201,7.2 z" stroke-width="0" stroke-linejoin="miter" stroke-miterlimit="2" fill="#5f4484" stroke="#5f4484" transform="translate(0 314.092) translate(588.8965562499999 51.818000000000005) scale(1.25) translate(-574.55337 39.672)"></path>
        <path id="path370202" style="font-style:normal;font-weight:800;font-size:72px;line-height:1;font-family:'Montserrat ExtraBold Alt1';font-variant-ligatures:none;text-align:center;text-anchor:middle" d="m 648.08563,-1.584 -3.384,-9.576 c -1.22401,0.864 -2.592,1.224 -4.17601,1.224 -1.296,0 -2.30399,-0.36 -3.024,-1.152 -0.72,-0.792 -1.08,-1.872 -1.08,-3.312 v -12.96 h 8.92801 v -10.224 h -8.92801 v -10.152 h -13.68 v 10.152 h -5.688 v 10.224 h 5.688 v 13.104 c 0,4.968 1.36801,8.712 4.10401,11.16 2.736,2.52 6.62399,3.744 11.736,3.744 1.87199,0 3.59999,-0.144 5.25599,-0.576 1.656,-0.36 3.096,-0.936 4.24801,-1.656 z" stroke-width="0" stroke-linejoin="miter" stroke-miterlimit="2" fill="#484897" stroke="#484897" transform="translate(0 314.092) translate(642.02186875 41.73800000000001) scale(1.25) translate(-617.05362 47.736)"></path>
        <path id="path370204" style="font-style:normal;font-weight:800;font-size:72px;line-height:1;font-family:'Montserrat ExtraBold Alt1';font-variant-ligatures:none;text-align:center;text-anchor:middle" d="m 697.81175,-9.648 v -11.304 h -7.488 v -8.568 h -13.464 v 8.568 h -10.224 l 20.52,-29.448 h -14.76 l -22.608,31.464 v 9.288 h 26.64 V 0 h 13.896 v -9.648 z" stroke-width="0" stroke-linejoin="miter" stroke-miterlimit="2" fill="#324caa" stroke="#324caa" transform="translate(0 314.092) translate(682.9395312499998 38.408) scale(1.25) translate(-649.78775 50.4)"></path>
      </g>
      <image xlink:href="" id="icon" style="display: none;" x="0" y="0"></image>
    </g>
  </g>
</svg>